<svg width="306" height="345" viewBox="0 0 306 345" fill="none" xmlns="http://www.w3.org/2000/svg">
<g clip-path="url(#clip0_184_66)">
<path d="M302.107 258.262C304.508 254.103 306 249.417 306 245.209V99.1399C306 94.9319 304.51 90.2469 302.108 86.0879L153 172.175L302.107 258.262Z" fill="#282828"/>
<path d="M166.25 341.193L292.75 268.159C296.394 266.055 299.706 262.422 302.107 258.262L153 172.175L3.89294 258.263C6.29394 262.422 9.60694 266.056 13.2499 268.159L139.75 341.193C147.037 345.401 158.963 345.401 166.25 341.193Z" fill="#1A1A1A"/>
<path d="M302.108 86.087C299.706 81.927 296.393 78.294 292.75 76.19L166.25 3.156C158.963 -1.052 147.037 -1.052 139.75 3.156L13.25 76.19C5.962 80.397 0 90.725 0 99.14V245.209C0 249.417 1.491 254.103 3.893 258.262L153 172.175L302.108 86.087Z" fill="#393939"/>
<path d="M153 274.175C96.757 274.175 51 228.418 51 172.175C51 115.932 96.757 70.1748 153 70.1748C189.292 70.1748 223.139 89.7048 241.331 121.143L197.188 146.687C188.083 130.951 171.15 121.175 153 121.175C124.878 121.175 102 144.053 102 172.175C102 200.296 124.878 223.175 153 223.175C171.152 223.175 188.085 213.399 197.191 197.66L241.334 223.203C223.142 254.644 189.294 274.175 153 274.175Z" fill="white"/>
<path d="M206.62 172.328C207.052 169.832 207.976 167.612 209.392 165.668C210.832 163.7 212.608 162.176 214.72 161.096C216.832 159.992 219.112 159.44 221.56 159.44C224.56 159.44 226.984 160.232 228.832 161.816C230.704 163.4 231.76 165.56 232 168.296H225.232C224.92 167.264 224.344 166.484 223.504 165.956C222.688 165.404 221.68 165.128 220.48 165.128C218.584 165.128 216.94 165.788 215.548 167.108C214.156 168.404 213.268 170.144 212.884 172.328C212.764 173 212.704 173.588 212.704 174.092C212.704 175.772 213.172 177.104 214.108 178.088C215.044 179.072 216.328 179.564 217.96 179.564C219.136 179.564 220.228 179.288 221.236 178.736C222.268 178.184 223.132 177.392 223.828 176.36H230.596C229.396 179.096 227.584 181.256 225.16 182.84C222.736 184.4 220.024 185.18 217.024 185.18C214.864 185.18 212.98 184.76 211.372 183.92C209.764 183.08 208.528 181.892 207.664 180.356C206.8 178.82 206.368 177.032 206.368 174.992C206.368 174.08 206.452 173.192 206.62 172.328ZM241.998 185.288C240.27 185.288 238.734 184.94 237.39 184.244C236.046 183.548 235.002 182.564 234.258 181.292C233.538 180.02 233.178 178.544 233.178 176.864C233.178 174.584 233.718 172.508 234.798 170.636C235.878 168.764 237.366 167.3 239.262 166.244C241.158 165.164 243.27 164.624 245.598 164.624C247.326 164.624 248.862 164.984 250.206 165.704C251.574 166.4 252.63 167.384 253.374 168.656C254.118 169.928 254.49 171.404 254.49 173.084C254.49 175.388 253.938 177.476 252.834 179.348C251.754 181.196 250.254 182.648 248.334 183.704C246.438 184.76 244.326 185.288 241.998 185.288ZM242.862 179.996C243.87 179.996 244.77 179.696 245.562 179.096C246.378 178.472 247.002 177.68 247.434 176.72C247.89 175.736 248.118 174.716 248.118 173.66C248.118 172.46 247.794 171.536 247.146 170.888C246.498 170.24 245.682 169.916 244.698 169.916C243.666 169.916 242.754 170.228 241.962 170.852C241.194 171.452 240.594 172.244 240.162 173.228C239.73 174.212 239.514 175.244 239.514 176.324C239.514 177.5 239.826 178.412 240.45 179.06C241.074 179.684 241.878 179.996 242.862 179.996ZM256.316 174.92C256.676 172.856 257.384 171.044 258.44 169.484C259.496 167.924 260.768 166.724 262.256 165.884C263.744 165.044 265.316 164.624 266.972 164.624C268.292 164.624 269.444 164.9 270.428 165.452C271.436 166.004 272.168 166.748 272.624 167.684L274.28 158.36H280.436L275.72 185H269.564L270.068 182.12C269.3 183.08 268.34 183.848 267.188 184.424C266.036 185 264.752 185.288 263.336 185.288C261.92 185.288 260.66 184.964 259.556 184.316C258.476 183.668 257.624 182.744 257 181.544C256.4 180.344 256.1 178.94 256.1 177.332C256.1 176.588 256.172 175.784 256.316 174.92ZM271.364 174.956C271.436 174.524 271.472 174.128 271.472 173.768C271.472 172.592 271.124 171.668 270.428 170.996C269.756 170.324 268.892 169.988 267.836 169.988C266.612 169.988 265.496 170.432 264.488 171.32C263.48 172.184 262.844 173.384 262.58 174.92C262.508 175.352 262.472 175.748 262.472 176.108C262.472 177.284 262.808 178.22 263.48 178.916C264.176 179.588 265.04 179.924 266.072 179.924C267.296 179.924 268.412 179.48 269.42 178.592C270.428 177.704 271.076 176.492 271.364 174.956ZM292.701 164.624C295.293 164.624 297.345 165.332 298.857 166.748C300.393 168.14 301.161 170.048 301.161 172.472C301.161 173.264 301.101 173.972 300.981 174.596C300.885 175.148 300.741 175.736 300.549 176.36H286.617C286.593 176.504 286.581 176.732 286.581 177.044C286.581 178.1 286.869 178.904 287.445 179.456C288.021 180.008 288.789 180.284 289.749 180.284C291.285 180.284 292.461 179.636 293.277 178.34H299.829C298.965 180.38 297.561 182.048 295.617 183.344C293.673 184.64 291.489 185.288 289.065 185.288C286.473 185.288 284.397 184.568 282.837 183.128C281.301 181.688 280.533 179.732 280.533 177.26C280.533 176.516 280.605 175.748 280.749 174.956C281.109 172.868 281.853 171.044 282.981 169.484C284.109 167.924 285.513 166.724 287.193 165.884C288.873 165.044 290.709 164.624 292.701 164.624ZM294.933 173.228C294.981 172.892 295.005 172.664 295.005 172.544C295.005 171.584 294.705 170.852 294.105 170.348C293.505 169.82 292.713 169.556 291.729 169.556C290.673 169.556 289.737 169.88 288.921 170.528C288.129 171.152 287.553 172.052 287.193 173.228H294.933Z" fill="white"/>
</g>
<defs>
<clipPath id="clip0_184_66">
<rect width="306" height="344.35" fill="white"/>
</clipPath>
</defs>
</svg>
