<svg width="103" height="103" viewBox="0 0 103 103" fill="none" xmlns="http://www.w3.org/2000/svg">
<path d="M38.625 30.0417L55.7917 30.0417" stroke="#33363F" stroke-width="2" stroke-linecap="round"/>
<path d="M38.625 64.375L51.5 64.375" stroke="#33363F" stroke-width="2" stroke-linecap="round"/>
<path d="M38.625 47.2083L64.375 47.2083" stroke="#33363F" stroke-width="2" stroke-linecap="round"/>
<path d="M81.5417 47.2083V18.875C81.5417 16.0466 81.5417 14.6324 80.663 13.7537C79.7843 12.875 78.3701 12.875 75.5417 12.875H27.4583C24.6299 12.875 23.2157 12.875 22.337 13.7537C21.4583 14.6324 21.4583 16.0466 21.4583 18.875V84.125C21.4583 86.9534 21.4583 88.3676 22.337 89.2463C23.2157 90.125 24.6299 90.125 27.4583 90.125H51.5" stroke="#33363F" stroke-width="2"/>
<circle cx="75.1042" cy="75.1042" r="10.7292" stroke="#33363F" stroke-width="2"/>
<path d="M90.125 90.125L83.6875 83.6875" stroke="#33363F" stroke-width="2" stroke-linecap="round"/>
</svg>
